<mxfile host="app.diagrams.net" modified="2024-03-13T08:26:21.061Z" agent="Mozilla/5.0 (Macintosh; Intel Mac OS X 10_15_7) AppleWebKit/605.1.15 (KHTML, like Gecko) Version/17.4 Safari/605.1.15" etag="TI78yWYs_Uw4RbXoQNH4" version="24.0.5" type="github">
  <diagram name="Страница — 1" id="mdvH1m8hR_8Fk9NDpSXH">
    <mxGraphModel dx="986" dy="687" grid="1" gridSize="10" guides="1" tooltips="1" connect="1" arrows="1" fold="1" page="1" pageScale="1" pageWidth="827" pageHeight="1169" math="0" shadow="0">
      <root>
        <mxCell id="0" />
        <mxCell id="1" parent="0" />
        <mxCell id="BPmx3O7TrGEcnui1N9nM-1" value="Обращение в поддержку" style="ellipse;whiteSpace=wrap;html=1;" parent="1" vertex="1">
          <mxGeometry x="214" y="280" width="200" height="80" as="geometry" />
        </mxCell>
        <mxCell id="BPmx3O7TrGEcnui1N9nM-2" value="Пользователь" style="shape=umlActor;verticalLabelPosition=bottom;verticalAlign=top;html=1;outlineConnect=0;" parent="1" vertex="1">
          <mxGeometry x="110" y="290" width="30" height="60" as="geometry" />
        </mxCell>
        <mxCell id="BPmx3O7TrGEcnui1N9nM-3" value="Администратор" style="shape=umlActor;verticalLabelPosition=bottom;verticalAlign=top;html=1;outlineConnect=0;" parent="1" vertex="1">
          <mxGeometry x="764.5" y="640" width="30" height="60" as="geometry" />
        </mxCell>
        <mxCell id="BPmx3O7TrGEcnui1N9nM-7" value="" style="endArrow=none;html=1;rounded=0;" parent="1" source="BPmx3O7TrGEcnui1N9nM-2" target="BPmx3O7TrGEcnui1N9nM-1" edge="1">
          <mxGeometry width="50" height="50" relative="1" as="geometry">
            <mxPoint x="510" y="520" as="sourcePoint" />
            <mxPoint x="560" y="470" as="targetPoint" />
          </mxGeometry>
        </mxCell>
        <mxCell id="BPmx3O7TrGEcnui1N9nM-8" value="Добавление монет на сайт" style="ellipse;whiteSpace=wrap;html=1;" parent="1" vertex="1">
          <mxGeometry x="530" y="584" width="200" height="80" as="geometry" />
        </mxCell>
        <mxCell id="BPmx3O7TrGEcnui1N9nM-9" value="" style="endArrow=none;html=1;rounded=0;" parent="1" source="BPmx3O7TrGEcnui1N9nM-3" target="BPmx3O7TrGEcnui1N9nM-8" edge="1">
          <mxGeometry width="50" height="50" relative="1" as="geometry">
            <mxPoint x="184.5" y="398" as="sourcePoint" />
            <mxPoint x="336.5" y="479" as="targetPoint" />
          </mxGeometry>
        </mxCell>
        <mxCell id="BPmx3O7TrGEcnui1N9nM-10" value="Добавление монеты" style="ellipse;whiteSpace=wrap;html=1;" parent="1" vertex="1">
          <mxGeometry x="40" y="450" width="200" height="80" as="geometry" />
        </mxCell>
        <mxCell id="BPmx3O7TrGEcnui1N9nM-11" value="" style="endArrow=none;html=1;rounded=0;" parent="1" source="BPmx3O7TrGEcnui1N9nM-10" target="BPmx3O7TrGEcnui1N9nM-2" edge="1">
          <mxGeometry width="50" height="50" relative="1" as="geometry">
            <mxPoint x="420" y="440" as="sourcePoint" />
            <mxPoint x="470" y="390" as="targetPoint" />
          </mxGeometry>
        </mxCell>
        <mxCell id="BPmx3O7TrGEcnui1N9nM-13" value="Поиск монеты" style="ellipse;whiteSpace=wrap;html=1;" parent="1" vertex="1">
          <mxGeometry x="60" y="180" width="200" height="80" as="geometry" />
        </mxCell>
        <mxCell id="BPmx3O7TrGEcnui1N9nM-14" value="" style="endArrow=none;html=1;rounded=0;" parent="1" source="BPmx3O7TrGEcnui1N9nM-2" target="BPmx3O7TrGEcnui1N9nM-13" edge="1">
          <mxGeometry width="50" height="50" relative="1" as="geometry">
            <mxPoint x="430" y="480" as="sourcePoint" />
            <mxPoint x="480" y="430" as="targetPoint" />
          </mxGeometry>
        </mxCell>
        <mxCell id="BPmx3O7TrGEcnui1N9nM-26" value="" style="endArrow=blockThin;html=1;rounded=0;endFill=0;endSize=12;" parent="1" source="BPmx3O7TrGEcnui1N9nM-20" edge="1">
          <mxGeometry width="50" height="50" relative="1" as="geometry">
            <mxPoint x="500" y="320" as="sourcePoint" />
            <mxPoint x="504.1715721272301" y="177.293178216181" as="targetPoint" />
          </mxGeometry>
        </mxCell>
        <mxCell id="BPmx3O7TrGEcnui1N9nM-27" value="" style="endArrow=blockThin;html=1;rounded=0;endFill=0;endSize=12;" parent="1" source="BPmx3O7TrGEcnui1N9nM-19" edge="1">
          <mxGeometry width="50" height="50" relative="1" as="geometry">
            <mxPoint x="569" y="251" as="sourcePoint" />
            <mxPoint x="443.530627084926" y="198.21610563931586" as="targetPoint" />
          </mxGeometry>
        </mxCell>
        <mxCell id="BPmx3O7TrGEcnui1N9nM-28" value="Добавление в коллекцию" style="ellipse;whiteSpace=wrap;html=1;" parent="1" vertex="1">
          <mxGeometry x="360" y="370" width="200" height="80" as="geometry" />
        </mxCell>
        <mxCell id="BPmx3O7TrGEcnui1N9nM-30" value="Добавление картинки монеты" style="ellipse;whiteSpace=wrap;html=1;" parent="1" vertex="1">
          <mxGeometry x="50" y="620" width="200" height="80" as="geometry" />
        </mxCell>
        <mxCell id="C62FpuVoVXCwqaJ_DgfJ-1" value="" style="endArrow=classicThin;dashed=1;html=1;rounded=0;startArrow=none;startFill=0;endFill=1;" edge="1" parent="1" source="BPmx3O7TrGEcnui1N9nM-10" target="BPmx3O7TrGEcnui1N9nM-28">
          <mxGeometry width="50" height="50" relative="1" as="geometry">
            <mxPoint x="280" y="340" as="sourcePoint" />
            <mxPoint x="368" y="113" as="targetPoint" />
          </mxGeometry>
        </mxCell>
        <mxCell id="C62FpuVoVXCwqaJ_DgfJ-2" value="&amp;lt;&amp;lt;include&amp;gt;&amp;gt;" style="edgeLabel;html=1;align=center;verticalAlign=middle;resizable=0;points=[];" vertex="1" connectable="0" parent="C62FpuVoVXCwqaJ_DgfJ-1">
          <mxGeometry x="0.0097" y="-2" relative="1" as="geometry">
            <mxPoint x="-17" y="-12" as="offset" />
          </mxGeometry>
        </mxCell>
        <mxCell id="C62FpuVoVXCwqaJ_DgfJ-3" value="" style="endArrow=classicThin;dashed=1;html=1;rounded=0;startArrow=none;startFill=0;endFill=1;" edge="1" parent="1" source="BPmx3O7TrGEcnui1N9nM-10" target="BPmx3O7TrGEcnui1N9nM-30">
          <mxGeometry width="50" height="50" relative="1" as="geometry">
            <mxPoint x="236" y="479" as="sourcePoint" />
            <mxPoint x="394" y="441" as="targetPoint" />
          </mxGeometry>
        </mxCell>
        <mxCell id="C62FpuVoVXCwqaJ_DgfJ-4" value="&amp;lt;&amp;lt;include&amp;gt;&amp;gt;" style="edgeLabel;html=1;align=center;verticalAlign=middle;resizable=0;points=[];" vertex="1" connectable="0" parent="C62FpuVoVXCwqaJ_DgfJ-3">
          <mxGeometry x="0.0097" y="-2" relative="1" as="geometry">
            <mxPoint x="37" y="-12" as="offset" />
          </mxGeometry>
        </mxCell>
        <mxCell id="C62FpuVoVXCwqaJ_DgfJ-5" value="Создание коллекции" style="ellipse;whiteSpace=wrap;html=1;" vertex="1" parent="1">
          <mxGeometry x="547.5" y="460" width="165" height="80" as="geometry" />
        </mxCell>
        <mxCell id="C62FpuVoVXCwqaJ_DgfJ-6" value="" style="endArrow=blockThin;html=1;rounded=0;endFill=0;endSize=12;" edge="1" parent="1" source="C62FpuVoVXCwqaJ_DgfJ-5" target="BPmx3O7TrGEcnui1N9nM-28">
          <mxGeometry width="50" height="50" relative="1" as="geometry">
            <mxPoint x="632" y="666" as="sourcePoint" />
            <mxPoint x="598" y="450" as="targetPoint" />
          </mxGeometry>
        </mxCell>
        <mxCell id="C62FpuVoVXCwqaJ_DgfJ-7" value="Добавление информации о монете" style="ellipse;whiteSpace=wrap;html=1;" vertex="1" parent="1">
          <mxGeometry x="314" y="530" width="200" height="80" as="geometry" />
        </mxCell>
        <mxCell id="C62FpuVoVXCwqaJ_DgfJ-8" value="" style="endArrow=classicThin;dashed=1;html=1;rounded=0;startArrow=none;startFill=0;endFill=1;" edge="1" parent="1" source="BPmx3O7TrGEcnui1N9nM-10" target="C62FpuVoVXCwqaJ_DgfJ-7">
          <mxGeometry width="50" height="50" relative="1" as="geometry">
            <mxPoint x="235" y="479" as="sourcePoint" />
            <mxPoint x="385" y="441" as="targetPoint" />
          </mxGeometry>
        </mxCell>
        <mxCell id="C62FpuVoVXCwqaJ_DgfJ-9" value="&amp;lt;&amp;lt;include&amp;gt;&amp;gt;" style="edgeLabel;html=1;align=center;verticalAlign=middle;resizable=0;points=[];" vertex="1" connectable="0" parent="C62FpuVoVXCwqaJ_DgfJ-8">
          <mxGeometry x="0.0097" y="-2" relative="1" as="geometry">
            <mxPoint x="13" y="-22" as="offset" />
          </mxGeometry>
        </mxCell>
        <mxCell id="C62FpuVoVXCwqaJ_DgfJ-10" value="Нумизмат" style="shape=umlActor;verticalLabelPosition=bottom;verticalAlign=top;html=1;outlineConnect=0;" vertex="1" parent="1">
          <mxGeometry x="740" y="240" width="30" height="60" as="geometry" />
        </mxCell>
        <mxCell id="C62FpuVoVXCwqaJ_DgfJ-19" value="Поиск с помощью ИИ" style="ellipse;whiteSpace=wrap;html=1;" vertex="1" parent="1">
          <mxGeometry x="525" y="20" width="165" height="80" as="geometry" />
        </mxCell>
        <mxCell id="C62FpuVoVXCwqaJ_DgfJ-21" value="" style="endArrow=classicThin;dashed=1;html=1;rounded=0;startArrow=none;startFill=0;endFill=1;" edge="1" parent="1" source="BPmx3O7TrGEcnui1N9nM-13" target="C62FpuVoVXCwqaJ_DgfJ-19">
          <mxGeometry width="50" height="50" relative="1" as="geometry">
            <mxPoint x="259.84104059632955" y="67.74552488976019" as="sourcePoint" />
            <mxPoint x="560" y="100" as="targetPoint" />
            <Array as="points">
              <mxPoint x="200" y="50" />
            </Array>
          </mxGeometry>
        </mxCell>
        <mxCell id="C62FpuVoVXCwqaJ_DgfJ-22" value="&amp;lt;&amp;lt;extend&amp;gt;&amp;gt;" style="edgeLabel;html=1;align=center;verticalAlign=middle;resizable=0;points=[];" vertex="1" connectable="0" parent="C62FpuVoVXCwqaJ_DgfJ-21">
          <mxGeometry x="0.0097" y="-2" relative="1" as="geometry">
            <mxPoint x="-17" y="-12" as="offset" />
          </mxGeometry>
        </mxCell>
        <mxCell id="C62FpuVoVXCwqaJ_DgfJ-23" value="Поиск с помощью строки запроса" style="ellipse;whiteSpace=wrap;html=1;" vertex="1" parent="1">
          <mxGeometry x="365" y="100" width="165" height="80" as="geometry" />
        </mxCell>
        <mxCell id="C62FpuVoVXCwqaJ_DgfJ-24" value="" style="endArrow=classicThin;dashed=1;html=1;rounded=0;startArrow=none;startFill=0;endFill=1;" edge="1" parent="1" target="C62FpuVoVXCwqaJ_DgfJ-23" source="BPmx3O7TrGEcnui1N9nM-13">
          <mxGeometry width="50" height="50" relative="1" as="geometry">
            <mxPoint x="236.99911999165283" y="95.52218022195223" as="sourcePoint" />
            <mxPoint x="540" y="170" as="targetPoint" />
            <Array as="points">
              <mxPoint x="250" y="130" />
              <mxPoint x="370" y="140" />
            </Array>
          </mxGeometry>
        </mxCell>
        <mxCell id="C62FpuVoVXCwqaJ_DgfJ-25" value="&amp;lt;&amp;lt;extend&amp;gt;&amp;gt;" style="edgeLabel;html=1;align=center;verticalAlign=middle;resizable=0;points=[];" vertex="1" connectable="0" parent="C62FpuVoVXCwqaJ_DgfJ-24">
          <mxGeometry x="0.0097" y="-2" relative="1" as="geometry">
            <mxPoint x="12" y="-21" as="offset" />
          </mxGeometry>
        </mxCell>
        <mxCell id="C62FpuVoVXCwqaJ_DgfJ-28" value="" style="endArrow=none;html=1;rounded=0;" edge="1" parent="1" source="C62FpuVoVXCwqaJ_DgfJ-30" target="C62FpuVoVXCwqaJ_DgfJ-10">
          <mxGeometry width="50" height="50" relative="1" as="geometry">
            <mxPoint x="490" y="300" as="sourcePoint" />
            <mxPoint x="540" y="250" as="targetPoint" />
          </mxGeometry>
        </mxCell>
        <mxCell id="C62FpuVoVXCwqaJ_DgfJ-30" value="Помощь в поиске монеты" style="ellipse;whiteSpace=wrap;html=1;" vertex="1" parent="1">
          <mxGeometry x="530" y="210" width="120" height="80" as="geometry" />
        </mxCell>
        <mxCell id="C62FpuVoVXCwqaJ_DgfJ-34" value="" style="endArrow=blockThin;html=1;rounded=0;endFill=0;endSize=12;" edge="1" parent="1" source="C62FpuVoVXCwqaJ_DgfJ-30" target="BPmx3O7TrGEcnui1N9nM-13">
          <mxGeometry width="50" height="50" relative="1" as="geometry">
            <mxPoint x="584" y="481" as="sourcePoint" />
            <mxPoint x="530" y="452" as="targetPoint" />
          </mxGeometry>
        </mxCell>
      </root>
    </mxGraphModel>
  </diagram>
</mxfile>
